# xmcd
# 
# Track frame offsets:
#     150
#     13752
#     34097
#     47682
#     59336
#     72815
#     88030
#     101403
#     117747
#     128968
#     141922
#     154201
#     166790
#     181668
#     195039
#     209053
#     225801
#     237593
#     249162
#     261823
# 
# Disc length: 3669
# 
# Revision: 2
# Processed by: cddbd v1.5.2PL0 Copyright (c) Steve Scherf et al.
# Submitted via: fre:ac v1.0.17
# 
DISCID=0c0e5314
DTITLE=Slim Dusty - Pubs, Trucks and Plains Disc 1 - Pubs
DYEAR=2007
DGENRE=Australian Country
TTITLE0=Slim Dusty - A Pub With No Beer (1979 Version)
TTITLE1=Slim Dusty - Born With An Endless Thirst
TTITLE2=Slim Dusty - The Bloke Who Serves The Beer
TTITLE3=Slim Dusty - Duncan
TTITLE4=Slim Dusty - Must've Been A Hell Of A Party
TTITLE5=Slim Dusty - Three Rivers Hotel
TTITLE6=Slim Dusty With Rolf Harris - Wobbly Boot
TTITLE7=Slim Dusty - He's A Good Bloke When He's Sober
TTITLE8=Slim Dusty - Drowning My Blues
TTITLE9=Slim Dusty - Brown Bottle Blues
TTITLE10=Slim Dusty - Old Bush Pub
TTITLE11=Slim Dusty - Callaghan's Hotel
TTITLE12=Slim Dusty - Pay Day At The Pub
TTITLE13=Slim Dusty - Joe Maguire's Pub
TTITLE14=Slim Dusty - Nebo Pub
TTITLE15=Slim Dusty - Finney's Home Brew
TTITLE16=Slim Dusty - Little Old One Horse Pub
TTITLE17=Slim Dusty - The Pub Rock
TTITLE18=Slim Dusty - The Answer To The Pub With No Beer
TTITLE19=Slim Dusty - A Pub With No Beer (Original 1957 Version)
EXTD=2007 EMI Pty Limited Australia
EXTT0=
EXTT1=
EXTT2=
EXTT3=
EXTT4=
EXTT5=
EXTT6=
EXTT7=
EXTT8=
EXTT9=
EXTT10=
EXTT11=
EXTT12=
EXTT13=
EXTT14=
EXTT15=
EXTT16=
EXTT17=
EXTT18=
EXTT19=
PLAYORDER=
